<mxfile host="app.diagrams.net" modified="2024-04-03T18:06:35.327Z" agent="Mozilla/5.0 (Windows NT 10.0; Win64; x64) AppleWebKit/537.36 (KHTML, like Gecko) Chrome/121.0.0.0 Safari/537.36" etag="NxpHI_pzccmi6JMGoMOS" version="24.2.2" type="device">
  <diagram name="Страница — 1" id="H93DpzfbuOc5-8mmakmB">
    <mxGraphModel dx="1050" dy="530" grid="1" gridSize="10" guides="1" tooltips="1" connect="1" arrows="1" fold="1" page="1" pageScale="1" pageWidth="827" pageHeight="1169" math="0" shadow="0">
      <root>
        <mxCell id="0" />
        <mxCell id="1" parent="0" />
        <mxCell id="7obgQjxqYn5zs-KwEbyF-33" style="edgeStyle=orthogonalEdgeStyle;rounded=0;orthogonalLoop=1;jettySize=auto;html=1;exitX=0.5;exitY=1;exitDx=0;exitDy=0;entryX=0.5;entryY=0;entryDx=0;entryDy=0;" edge="1" parent="1" source="7obgQjxqYn5zs-KwEbyF-1" target="7obgQjxqYn5zs-KwEbyF-3">
          <mxGeometry relative="1" as="geometry" />
        </mxCell>
        <mxCell id="7obgQjxqYn5zs-KwEbyF-1" value="" style="ellipse;whiteSpace=wrap;html=1;" vertex="1" parent="1">
          <mxGeometry x="60" y="30" width="120" height="40" as="geometry" />
        </mxCell>
        <mxCell id="7obgQjxqYn5zs-KwEbyF-2" value="&lt;font style=&quot;font-size: 16px;&quot;&gt;Начало&lt;/font&gt;" style="text;html=1;align=center;verticalAlign=middle;whiteSpace=wrap;rounded=0;" vertex="1" parent="1">
          <mxGeometry x="95" y="35" width="60" height="30" as="geometry" />
        </mxCell>
        <mxCell id="7obgQjxqYn5zs-KwEbyF-28" style="edgeStyle=orthogonalEdgeStyle;rounded=0;orthogonalLoop=1;jettySize=auto;html=1;exitX=0.5;exitY=1;exitDx=0;exitDy=0;entryX=0.5;entryY=0;entryDx=0;entryDy=0;" edge="1" parent="1" source="7obgQjxqYn5zs-KwEbyF-4" target="7obgQjxqYn5zs-KwEbyF-5">
          <mxGeometry relative="1" as="geometry" />
        </mxCell>
        <mxCell id="7obgQjxqYn5zs-KwEbyF-3" value="" style="shape=parallelogram;perimeter=parallelogramPerimeter;whiteSpace=wrap;html=1;fixedSize=1;" vertex="1" parent="1">
          <mxGeometry x="50" y="100" width="140" height="40" as="geometry" />
        </mxCell>
        <mxCell id="7obgQjxqYn5zs-KwEbyF-4" value="Массив str" style="text;html=1;align=center;verticalAlign=middle;whiteSpace=wrap;rounded=0;" vertex="1" parent="1">
          <mxGeometry x="85" y="105" width="80" height="30" as="geometry" />
        </mxCell>
        <mxCell id="7obgQjxqYn5zs-KwEbyF-5" value="" style="rounded=0;whiteSpace=wrap;html=1;" vertex="1" parent="1">
          <mxGeometry x="50" y="160" width="140" height="40" as="geometry" />
        </mxCell>
        <mxCell id="7obgQjxqYn5zs-KwEbyF-25" style="edgeStyle=orthogonalEdgeStyle;rounded=0;orthogonalLoop=1;jettySize=auto;html=1;entryX=0.5;entryY=0;entryDx=0;entryDy=0;" edge="1" parent="1" target="7obgQjxqYn5zs-KwEbyF-7">
          <mxGeometry relative="1" as="geometry">
            <mxPoint x="120" y="200" as="sourcePoint" />
          </mxGeometry>
        </mxCell>
        <mxCell id="7obgQjxqYn5zs-KwEbyF-6" value="count = 0&lt;div&gt;i = 0&lt;/div&gt;" style="text;html=1;align=center;verticalAlign=middle;whiteSpace=wrap;rounded=0;" vertex="1" parent="1">
          <mxGeometry x="90" y="165" width="60" height="30" as="geometry" />
        </mxCell>
        <mxCell id="7obgQjxqYn5zs-KwEbyF-26" style="edgeStyle=orthogonalEdgeStyle;rounded=0;orthogonalLoop=1;jettySize=auto;html=1;exitX=0.5;exitY=1;exitDx=0;exitDy=0;entryX=0.5;entryY=0;entryDx=0;entryDy=0;" edge="1" parent="1" source="7obgQjxqYn5zs-KwEbyF-7" target="7obgQjxqYn5zs-KwEbyF-10">
          <mxGeometry relative="1" as="geometry" />
        </mxCell>
        <mxCell id="7obgQjxqYn5zs-KwEbyF-44" style="edgeStyle=orthogonalEdgeStyle;rounded=0;orthogonalLoop=1;jettySize=auto;html=1;exitX=1;exitY=0.5;exitDx=0;exitDy=0;entryX=0;entryY=0.5;entryDx=0;entryDy=0;" edge="1" parent="1" source="7obgQjxqYn5zs-KwEbyF-7" target="7obgQjxqYn5zs-KwEbyF-41">
          <mxGeometry relative="1" as="geometry" />
        </mxCell>
        <mxCell id="7obgQjxqYn5zs-KwEbyF-7" value="" style="rhombus;whiteSpace=wrap;html=1;" vertex="1" parent="1">
          <mxGeometry x="50" y="220" width="140" height="60" as="geometry" />
        </mxCell>
        <mxCell id="7obgQjxqYn5zs-KwEbyF-8" value="i &amp;lt; str.Lenght ?" style="text;html=1;align=center;verticalAlign=middle;whiteSpace=wrap;rounded=0;" vertex="1" parent="1">
          <mxGeometry x="75" y="235" width="100" height="30" as="geometry" />
        </mxCell>
        <mxCell id="7obgQjxqYn5zs-KwEbyF-27" style="edgeStyle=orthogonalEdgeStyle;rounded=0;orthogonalLoop=1;jettySize=auto;html=1;exitX=0.5;exitY=1;exitDx=0;exitDy=0;entryX=0.5;entryY=0;entryDx=0;entryDy=0;" edge="1" parent="1" source="7obgQjxqYn5zs-KwEbyF-10" target="7obgQjxqYn5zs-KwEbyF-13">
          <mxGeometry relative="1" as="geometry" />
        </mxCell>
        <mxCell id="7obgQjxqYn5zs-KwEbyF-36" style="edgeStyle=orthogonalEdgeStyle;rounded=0;orthogonalLoop=1;jettySize=auto;html=1;exitX=1;exitY=0.5;exitDx=0;exitDy=0;entryX=1;entryY=0.5;entryDx=0;entryDy=0;" edge="1" parent="1" source="7obgQjxqYn5zs-KwEbyF-10" target="7obgQjxqYn5zs-KwEbyF-14">
          <mxGeometry relative="1" as="geometry" />
        </mxCell>
        <mxCell id="7obgQjxqYn5zs-KwEbyF-10" value="" style="rhombus;whiteSpace=wrap;html=1;" vertex="1" parent="1">
          <mxGeometry x="50" y="300" width="140" height="60" as="geometry" />
        </mxCell>
        <mxCell id="7obgQjxqYn5zs-KwEbyF-11" value="str[i].Lenght &amp;lt;= 3 ?" style="text;html=1;align=center;verticalAlign=middle;whiteSpace=wrap;rounded=0;" vertex="1" parent="1">
          <mxGeometry x="40" y="315" width="160" height="30" as="geometry" />
        </mxCell>
        <mxCell id="7obgQjxqYn5zs-KwEbyF-12" value="" style="rounded=0;whiteSpace=wrap;html=1;" vertex="1" parent="1">
          <mxGeometry x="50" y="380" width="140" height="40" as="geometry" />
        </mxCell>
        <mxCell id="7obgQjxqYn5zs-KwEbyF-13" value="count ++" style="text;html=1;align=center;verticalAlign=middle;whiteSpace=wrap;rounded=0;" vertex="1" parent="1">
          <mxGeometry x="90" y="380" width="60" height="30" as="geometry" />
        </mxCell>
        <mxCell id="7obgQjxqYn5zs-KwEbyF-35" style="edgeStyle=orthogonalEdgeStyle;rounded=0;orthogonalLoop=1;jettySize=auto;html=1;exitX=0;exitY=0.5;exitDx=0;exitDy=0;entryX=0;entryY=0.5;entryDx=0;entryDy=0;" edge="1" parent="1" source="7obgQjxqYn5zs-KwEbyF-14" target="7obgQjxqYn5zs-KwEbyF-7">
          <mxGeometry relative="1" as="geometry" />
        </mxCell>
        <mxCell id="7obgQjxqYn5zs-KwEbyF-14" value="" style="rounded=0;whiteSpace=wrap;html=1;" vertex="1" parent="1">
          <mxGeometry x="50" y="440" width="140" height="40" as="geometry" />
        </mxCell>
        <mxCell id="7obgQjxqYn5zs-KwEbyF-15" value="i ++" style="text;html=1;align=center;verticalAlign=middle;whiteSpace=wrap;rounded=0;" vertex="1" parent="1">
          <mxGeometry x="85" y="440" width="60" height="30" as="geometry" />
        </mxCell>
        <mxCell id="7obgQjxqYn5zs-KwEbyF-29" style="edgeStyle=orthogonalEdgeStyle;rounded=0;orthogonalLoop=1;jettySize=auto;html=1;exitX=0.5;exitY=1;exitDx=0;exitDy=0;entryX=0.617;entryY=-0.013;entryDx=0;entryDy=0;entryPerimeter=0;" edge="1" parent="1" source="7obgQjxqYn5zs-KwEbyF-12" target="7obgQjxqYn5zs-KwEbyF-15">
          <mxGeometry relative="1" as="geometry" />
        </mxCell>
        <mxCell id="7obgQjxqYn5zs-KwEbyF-37" value="да" style="text;html=1;align=center;verticalAlign=middle;whiteSpace=wrap;rounded=0;" vertex="1" parent="1">
          <mxGeometry x="125" y="280" width="40" height="20" as="geometry" />
        </mxCell>
        <mxCell id="7obgQjxqYn5zs-KwEbyF-38" value="да" style="text;html=1;align=center;verticalAlign=middle;whiteSpace=wrap;rounded=0;" vertex="1" parent="1">
          <mxGeometry x="125" y="360" width="40" height="20" as="geometry" />
        </mxCell>
        <mxCell id="7obgQjxqYn5zs-KwEbyF-39" value="нет" style="text;html=1;align=center;verticalAlign=middle;whiteSpace=wrap;rounded=0;" vertex="1" parent="1">
          <mxGeometry x="180" y="310" width="40" height="20" as="geometry" />
        </mxCell>
        <mxCell id="7obgQjxqYn5zs-KwEbyF-46" style="edgeStyle=orthogonalEdgeStyle;rounded=0;orthogonalLoop=1;jettySize=auto;html=1;exitX=0.5;exitY=1;exitDx=0;exitDy=0;entryX=0.5;entryY=0;entryDx=0;entryDy=0;" edge="1" parent="1" source="7obgQjxqYn5zs-KwEbyF-40" target="7obgQjxqYn5zs-KwEbyF-42">
          <mxGeometry relative="1" as="geometry" />
        </mxCell>
        <mxCell id="7obgQjxqYn5zs-KwEbyF-40" value="" style="rounded=0;whiteSpace=wrap;html=1;" vertex="1" parent="1">
          <mxGeometry x="370" y="85" width="140" height="40" as="geometry" />
        </mxCell>
        <mxCell id="7obgQjxqYn5zs-KwEbyF-41" value="Инициализация нового массива new_str" style="text;html=1;align=center;verticalAlign=middle;whiteSpace=wrap;rounded=0;" vertex="1" parent="1">
          <mxGeometry x="370" y="90" width="140" height="30" as="geometry" />
        </mxCell>
        <mxCell id="7obgQjxqYn5zs-KwEbyF-51" style="edgeStyle=orthogonalEdgeStyle;rounded=0;orthogonalLoop=1;jettySize=auto;html=1;exitX=0.5;exitY=1;exitDx=0;exitDy=0;entryX=0.5;entryY=0;entryDx=0;entryDy=0;" edge="1" parent="1" source="7obgQjxqYn5zs-KwEbyF-42" target="7obgQjxqYn5zs-KwEbyF-48">
          <mxGeometry relative="1" as="geometry" />
        </mxCell>
        <mxCell id="7obgQjxqYn5zs-KwEbyF-42" value="" style="rounded=0;whiteSpace=wrap;html=1;" vertex="1" parent="1">
          <mxGeometry x="370" y="150" width="140" height="40" as="geometry" />
        </mxCell>
        <mxCell id="7obgQjxqYn5zs-KwEbyF-43" value="k = 0&lt;div&gt;i = 0&lt;/div&gt;" style="text;html=1;align=center;verticalAlign=middle;whiteSpace=wrap;rounded=0;" vertex="1" parent="1">
          <mxGeometry x="410" y="155" width="60" height="30" as="geometry" />
        </mxCell>
        <mxCell id="7obgQjxqYn5zs-KwEbyF-45" value="нет" style="text;html=1;align=center;verticalAlign=middle;whiteSpace=wrap;rounded=0;" vertex="1" parent="1">
          <mxGeometry x="180" y="230" width="40" height="20" as="geometry" />
        </mxCell>
        <mxCell id="7obgQjxqYn5zs-KwEbyF-63" style="edgeStyle=orthogonalEdgeStyle;rounded=0;orthogonalLoop=1;jettySize=auto;html=1;exitX=0.5;exitY=1;exitDx=0;exitDy=0;entryX=0.5;entryY=0;entryDx=0;entryDy=0;" edge="1" parent="1" source="7obgQjxqYn5zs-KwEbyF-47" target="7obgQjxqYn5zs-KwEbyF-54">
          <mxGeometry relative="1" as="geometry" />
        </mxCell>
        <mxCell id="7obgQjxqYn5zs-KwEbyF-67" style="edgeStyle=orthogonalEdgeStyle;rounded=0;orthogonalLoop=1;jettySize=auto;html=1;exitX=1;exitY=0.5;exitDx=0;exitDy=0;entryX=1;entryY=0.5;entryDx=0;entryDy=0;" edge="1" parent="1" source="7obgQjxqYn5zs-KwEbyF-47" target="7obgQjxqYn5zs-KwEbyF-56">
          <mxGeometry relative="1" as="geometry" />
        </mxCell>
        <mxCell id="7obgQjxqYn5zs-KwEbyF-47" value="" style="rhombus;whiteSpace=wrap;html=1;" vertex="1" parent="1">
          <mxGeometry x="370" y="300" width="140" height="60" as="geometry" />
        </mxCell>
        <mxCell id="7obgQjxqYn5zs-KwEbyF-52" style="edgeStyle=orthogonalEdgeStyle;rounded=0;orthogonalLoop=1;jettySize=auto;html=1;exitX=0.5;exitY=1;exitDx=0;exitDy=0;entryX=0.5;entryY=0;entryDx=0;entryDy=0;" edge="1" parent="1" source="7obgQjxqYn5zs-KwEbyF-48" target="7obgQjxqYn5zs-KwEbyF-47">
          <mxGeometry relative="1" as="geometry" />
        </mxCell>
        <mxCell id="7obgQjxqYn5zs-KwEbyF-73" style="edgeStyle=orthogonalEdgeStyle;rounded=0;orthogonalLoop=1;jettySize=auto;html=1;exitX=1;exitY=0.5;exitDx=0;exitDy=0;entryX=0;entryY=0.5;entryDx=0;entryDy=0;" edge="1" parent="1" source="7obgQjxqYn5zs-KwEbyF-48" target="7obgQjxqYn5zs-KwEbyF-69">
          <mxGeometry relative="1" as="geometry" />
        </mxCell>
        <mxCell id="7obgQjxqYn5zs-KwEbyF-48" value="" style="rhombus;whiteSpace=wrap;html=1;" vertex="1" parent="1">
          <mxGeometry x="370" y="220" width="140" height="60" as="geometry" />
        </mxCell>
        <mxCell id="7obgQjxqYn5zs-KwEbyF-49" value="i &amp;lt; str.Lenght ?" style="text;html=1;align=center;verticalAlign=middle;whiteSpace=wrap;rounded=0;" vertex="1" parent="1">
          <mxGeometry x="390" y="235" width="100" height="30" as="geometry" />
        </mxCell>
        <mxCell id="7obgQjxqYn5zs-KwEbyF-50" value="str[i].Lenght &amp;lt;= 3 ?" style="text;html=1;align=center;verticalAlign=middle;whiteSpace=wrap;rounded=0;" vertex="1" parent="1">
          <mxGeometry x="360" y="315" width="160" height="30" as="geometry" />
        </mxCell>
        <mxCell id="7obgQjxqYn5zs-KwEbyF-53" value="да" style="text;html=1;align=center;verticalAlign=middle;whiteSpace=wrap;rounded=0;" vertex="1" parent="1">
          <mxGeometry x="440" y="280" width="40" height="20" as="geometry" />
        </mxCell>
        <mxCell id="7obgQjxqYn5zs-KwEbyF-54" value="" style="rounded=0;whiteSpace=wrap;html=1;" vertex="1" parent="1">
          <mxGeometry x="370" y="380" width="140" height="40" as="geometry" />
        </mxCell>
        <mxCell id="7obgQjxqYn5zs-KwEbyF-65" style="edgeStyle=orthogonalEdgeStyle;rounded=0;orthogonalLoop=1;jettySize=auto;html=1;exitX=0.5;exitY=1;exitDx=0;exitDy=0;entryX=0.5;entryY=0;entryDx=0;entryDy=0;" edge="1" parent="1" source="7obgQjxqYn5zs-KwEbyF-55" target="7obgQjxqYn5zs-KwEbyF-56">
          <mxGeometry relative="1" as="geometry" />
        </mxCell>
        <mxCell id="7obgQjxqYn5zs-KwEbyF-55" value="" style="rounded=0;whiteSpace=wrap;html=1;" vertex="1" parent="1">
          <mxGeometry x="370" y="440" width="140" height="40" as="geometry" />
        </mxCell>
        <mxCell id="7obgQjxqYn5zs-KwEbyF-62" style="edgeStyle=orthogonalEdgeStyle;rounded=0;orthogonalLoop=1;jettySize=auto;html=1;exitX=0;exitY=0.5;exitDx=0;exitDy=0;entryX=0;entryY=0.5;entryDx=0;entryDy=0;" edge="1" parent="1" source="7obgQjxqYn5zs-KwEbyF-56" target="7obgQjxqYn5zs-KwEbyF-48">
          <mxGeometry relative="1" as="geometry" />
        </mxCell>
        <mxCell id="7obgQjxqYn5zs-KwEbyF-56" value="" style="rounded=0;whiteSpace=wrap;html=1;" vertex="1" parent="1">
          <mxGeometry x="370" y="500" width="140" height="40" as="geometry" />
        </mxCell>
        <mxCell id="7obgQjxqYn5zs-KwEbyF-64" style="edgeStyle=orthogonalEdgeStyle;rounded=0;orthogonalLoop=1;jettySize=auto;html=1;entryX=0.5;entryY=0;entryDx=0;entryDy=0;" edge="1" parent="1" target="7obgQjxqYn5zs-KwEbyF-55">
          <mxGeometry relative="1" as="geometry">
            <mxPoint x="440" y="420" as="sourcePoint" />
          </mxGeometry>
        </mxCell>
        <mxCell id="7obgQjxqYn5zs-KwEbyF-57" value="new_str[k] = str[i]" style="text;html=1;align=center;verticalAlign=middle;whiteSpace=wrap;rounded=0;" vertex="1" parent="1">
          <mxGeometry x="390" y="385" width="100" height="30" as="geometry" />
        </mxCell>
        <mxCell id="7obgQjxqYn5zs-KwEbyF-58" value="k ++" style="text;html=1;align=center;verticalAlign=middle;whiteSpace=wrap;rounded=0;" vertex="1" parent="1">
          <mxGeometry x="410" y="445" width="60" height="30" as="geometry" />
        </mxCell>
        <mxCell id="7obgQjxqYn5zs-KwEbyF-60" value="i ++" style="text;html=1;align=center;verticalAlign=middle;whiteSpace=wrap;rounded=0;" vertex="1" parent="1">
          <mxGeometry x="414" y="505" width="60" height="30" as="geometry" />
        </mxCell>
        <mxCell id="7obgQjxqYn5zs-KwEbyF-66" value="да" style="text;html=1;align=center;verticalAlign=middle;whiteSpace=wrap;rounded=0;" vertex="1" parent="1">
          <mxGeometry x="440" y="360" width="40" height="20" as="geometry" />
        </mxCell>
        <mxCell id="7obgQjxqYn5zs-KwEbyF-68" value="нет" style="text;html=1;align=center;verticalAlign=middle;whiteSpace=wrap;rounded=0;" vertex="1" parent="1">
          <mxGeometry x="500" y="310" width="40" height="20" as="geometry" />
        </mxCell>
        <mxCell id="7obgQjxqYn5zs-KwEbyF-69" value="" style="rounded=0;whiteSpace=wrap;html=1;" vertex="1" parent="1">
          <mxGeometry x="620" y="230" width="140" height="40" as="geometry" />
        </mxCell>
        <mxCell id="7obgQjxqYn5zs-KwEbyF-74" style="edgeStyle=orthogonalEdgeStyle;rounded=0;orthogonalLoop=1;jettySize=auto;html=1;" edge="1" parent="1">
          <mxGeometry relative="1" as="geometry">
            <mxPoint x="690" y="270" as="sourcePoint" />
            <mxPoint x="690" y="300" as="targetPoint" />
          </mxGeometry>
        </mxCell>
        <mxCell id="7obgQjxqYn5zs-KwEbyF-70" value="Вывод нового массива new_str" style="text;html=1;align=center;verticalAlign=middle;whiteSpace=wrap;rounded=0;" vertex="1" parent="1">
          <mxGeometry x="630" y="235" width="120" height="30" as="geometry" />
        </mxCell>
        <mxCell id="7obgQjxqYn5zs-KwEbyF-71" value="" style="ellipse;whiteSpace=wrap;html=1;" vertex="1" parent="1">
          <mxGeometry x="630" y="300" width="120" height="40" as="geometry" />
        </mxCell>
        <mxCell id="7obgQjxqYn5zs-KwEbyF-72" value="&lt;font style=&quot;font-size: 16px;&quot;&gt;Конец&lt;/font&gt;" style="text;html=1;align=center;verticalAlign=middle;whiteSpace=wrap;rounded=0;" vertex="1" parent="1">
          <mxGeometry x="660" y="305" width="60" height="30" as="geometry" />
        </mxCell>
        <mxCell id="7obgQjxqYn5zs-KwEbyF-75" value="нет" style="text;html=1;align=center;verticalAlign=middle;whiteSpace=wrap;rounded=0;" vertex="1" parent="1">
          <mxGeometry x="500" y="230" width="40" height="20" as="geometry" />
        </mxCell>
        <mxCell id="7obgQjxqYn5zs-KwEbyF-76" value="&lt;font style=&quot;font-size: 23px;&quot;&gt;Блок - схема по алгоритму&amp;nbsp; RESIZE (убирает двойное прохождение по исходному массиву)&lt;/font&gt;" style="text;html=1;align=center;verticalAlign=middle;whiteSpace=wrap;rounded=0;" vertex="1" parent="1">
          <mxGeometry x="145" y="600" width="595" height="30" as="geometry" />
        </mxCell>
        <mxCell id="7obgQjxqYn5zs-KwEbyF-77" value="&lt;font style=&quot;font-size: 23px;&quot;&gt;Блок - схема по обычному алгоритму&lt;/font&gt;" style="text;html=1;align=center;verticalAlign=middle;whiteSpace=wrap;rounded=0;" vertex="1" parent="1">
          <mxGeometry x="175" y="5" width="450" height="30" as="geometry" />
        </mxCell>
        <mxCell id="7obgQjxqYn5zs-KwEbyF-115" style="edgeStyle=orthogonalEdgeStyle;rounded=0;orthogonalLoop=1;jettySize=auto;html=1;exitX=1;exitY=0.5;exitDx=0;exitDy=0;entryX=0;entryY=0.5;entryDx=0;entryDy=0;" edge="1" parent="1" source="7obgQjxqYn5zs-KwEbyF-78" target="7obgQjxqYn5zs-KwEbyF-80">
          <mxGeometry relative="1" as="geometry" />
        </mxCell>
        <mxCell id="7obgQjxqYn5zs-KwEbyF-78" value="" style="ellipse;whiteSpace=wrap;html=1;" vertex="1" parent="1">
          <mxGeometry x="40" y="667.5" width="120" height="40" as="geometry" />
        </mxCell>
        <mxCell id="7obgQjxqYn5zs-KwEbyF-79" value="&lt;font style=&quot;font-size: 16px;&quot;&gt;Начало&lt;/font&gt;" style="text;html=1;align=center;verticalAlign=middle;whiteSpace=wrap;rounded=0;" vertex="1" parent="1">
          <mxGeometry x="70" y="675" width="60" height="25" as="geometry" />
        </mxCell>
        <mxCell id="7obgQjxqYn5zs-KwEbyF-116" style="edgeStyle=orthogonalEdgeStyle;rounded=0;orthogonalLoop=1;jettySize=auto;html=1;exitX=1;exitY=0.5;exitDx=0;exitDy=0;entryX=0;entryY=0.5;entryDx=0;entryDy=0;" edge="1" parent="1" source="7obgQjxqYn5zs-KwEbyF-80" target="7obgQjxqYn5zs-KwEbyF-84">
          <mxGeometry relative="1" as="geometry" />
        </mxCell>
        <mxCell id="7obgQjxqYn5zs-KwEbyF-80" value="" style="shape=parallelogram;perimeter=parallelogramPerimeter;whiteSpace=wrap;html=1;fixedSize=1;" vertex="1" parent="1">
          <mxGeometry x="190" y="667.5" width="140" height="40" as="geometry" />
        </mxCell>
        <mxCell id="7obgQjxqYn5zs-KwEbyF-81" value="Массив str" style="text;html=1;align=center;verticalAlign=middle;whiteSpace=wrap;rounded=0;" vertex="1" parent="1">
          <mxGeometry x="220" y="672.5" width="80" height="30" as="geometry" />
        </mxCell>
        <mxCell id="7obgQjxqYn5zs-KwEbyF-120" style="edgeStyle=orthogonalEdgeStyle;rounded=0;orthogonalLoop=1;jettySize=auto;html=1;exitX=0.5;exitY=1;exitDx=0;exitDy=0;entryX=0.5;entryY=0;entryDx=0;entryDy=0;" edge="1" parent="1" source="7obgQjxqYn5zs-KwEbyF-84" target="7obgQjxqYn5zs-KwEbyF-87">
          <mxGeometry relative="1" as="geometry" />
        </mxCell>
        <mxCell id="7obgQjxqYn5zs-KwEbyF-84" value="" style="rounded=0;whiteSpace=wrap;html=1;" vertex="1" parent="1">
          <mxGeometry x="360" y="667.5" width="140" height="40" as="geometry" />
        </mxCell>
        <mxCell id="7obgQjxqYn5zs-KwEbyF-112" style="edgeStyle=orthogonalEdgeStyle;rounded=0;orthogonalLoop=1;jettySize=auto;html=1;exitX=0.5;exitY=1;exitDx=0;exitDy=0;entryX=0.5;entryY=0;entryDx=0;entryDy=0;" edge="1" parent="1" source="7obgQjxqYn5zs-KwEbyF-85" target="7obgQjxqYn5zs-KwEbyF-98">
          <mxGeometry relative="1" as="geometry" />
        </mxCell>
        <mxCell id="7obgQjxqYn5zs-KwEbyF-85" value="" style="rounded=0;whiteSpace=wrap;html=1;" vertex="1" parent="1">
          <mxGeometry x="365" y="930" width="140" height="70" as="geometry" />
        </mxCell>
        <mxCell id="7obgQjxqYn5zs-KwEbyF-86" value="k = 0&lt;div&gt;i = 0&lt;/div&gt;" style="text;html=1;align=center;verticalAlign=middle;whiteSpace=wrap;rounded=0;" vertex="1" parent="1">
          <mxGeometry x="385" y="667.5" width="90" height="40" as="geometry" />
        </mxCell>
        <mxCell id="7obgQjxqYn5zs-KwEbyF-111" style="edgeStyle=orthogonalEdgeStyle;rounded=0;orthogonalLoop=1;jettySize=auto;html=1;exitX=0.5;exitY=1;exitDx=0;exitDy=0;entryX=0.5;entryY=0;entryDx=0;entryDy=0;" edge="1" parent="1" source="7obgQjxqYn5zs-KwEbyF-87" target="7obgQjxqYn5zs-KwEbyF-92">
          <mxGeometry relative="1" as="geometry" />
        </mxCell>
        <mxCell id="7obgQjxqYn5zs-KwEbyF-87" value="" style="rounded=0;whiteSpace=wrap;html=1;" vertex="1" parent="1">
          <mxGeometry x="360" y="720" width="140" height="40" as="geometry" />
        </mxCell>
        <mxCell id="7obgQjxqYn5zs-KwEbyF-88" value="string [] new_str = new string [k]&amp;nbsp;" style="text;html=1;align=center;verticalAlign=middle;whiteSpace=wrap;rounded=0;" vertex="1" parent="1">
          <mxGeometry x="375" y="725" width="120" height="30" as="geometry" />
        </mxCell>
        <mxCell id="7obgQjxqYn5zs-KwEbyF-129" style="edgeStyle=orthogonalEdgeStyle;rounded=0;orthogonalLoop=1;jettySize=auto;html=1;exitX=0.5;exitY=1;exitDx=0;exitDy=0;entryX=0.5;entryY=0;entryDx=0;entryDy=0;" edge="1" parent="1" source="7obgQjxqYn5zs-KwEbyF-89" target="7obgQjxqYn5zs-KwEbyF-127">
          <mxGeometry relative="1" as="geometry" />
        </mxCell>
        <mxCell id="7obgQjxqYn5zs-KwEbyF-89" value="" style="rounded=0;whiteSpace=wrap;html=1;" vertex="1" parent="1">
          <mxGeometry x="620" y="782.5" width="140" height="45" as="geometry" />
        </mxCell>
        <mxCell id="7obgQjxqYn5zs-KwEbyF-109" style="edgeStyle=orthogonalEdgeStyle;rounded=0;orthogonalLoop=1;jettySize=auto;html=1;exitX=1;exitY=0.5;exitDx=0;exitDy=0;entryX=1;entryY=0.5;entryDx=0;entryDy=0;" edge="1" parent="1" source="7obgQjxqYn5zs-KwEbyF-91" target="7obgQjxqYn5zs-KwEbyF-103">
          <mxGeometry relative="1" as="geometry" />
        </mxCell>
        <mxCell id="7obgQjxqYn5zs-KwEbyF-110" style="edgeStyle=orthogonalEdgeStyle;rounded=0;orthogonalLoop=1;jettySize=auto;html=1;exitX=0.5;exitY=1;exitDx=0;exitDy=0;entryX=0.5;entryY=0;entryDx=0;entryDy=0;" edge="1" parent="1" source="7obgQjxqYn5zs-KwEbyF-91" target="7obgQjxqYn5zs-KwEbyF-85">
          <mxGeometry relative="1" as="geometry" />
        </mxCell>
        <mxCell id="7obgQjxqYn5zs-KwEbyF-91" value="" style="rhombus;whiteSpace=wrap;html=1;" vertex="1" parent="1">
          <mxGeometry x="365" y="850" width="140" height="60" as="geometry" />
        </mxCell>
        <mxCell id="7obgQjxqYn5zs-KwEbyF-113" style="edgeStyle=orthogonalEdgeStyle;rounded=0;orthogonalLoop=1;jettySize=auto;html=1;exitX=0.5;exitY=1;exitDx=0;exitDy=0;entryX=0.5;entryY=0;entryDx=0;entryDy=0;" edge="1" parent="1" source="7obgQjxqYn5zs-KwEbyF-92" target="7obgQjxqYn5zs-KwEbyF-91">
          <mxGeometry relative="1" as="geometry" />
        </mxCell>
        <mxCell id="7obgQjxqYn5zs-KwEbyF-125" style="edgeStyle=orthogonalEdgeStyle;rounded=0;orthogonalLoop=1;jettySize=auto;html=1;exitX=1;exitY=0.5;exitDx=0;exitDy=0;entryX=0;entryY=0.5;entryDx=0;entryDy=0;" edge="1" parent="1" source="7obgQjxqYn5zs-KwEbyF-92" target="7obgQjxqYn5zs-KwEbyF-89">
          <mxGeometry relative="1" as="geometry" />
        </mxCell>
        <mxCell id="7obgQjxqYn5zs-KwEbyF-92" value="" style="rhombus;whiteSpace=wrap;html=1;" vertex="1" parent="1">
          <mxGeometry x="365" y="775" width="140" height="60" as="geometry" />
        </mxCell>
        <mxCell id="7obgQjxqYn5zs-KwEbyF-94" value="i &amp;lt; str.Lenght ?" style="text;html=1;align=center;verticalAlign=middle;whiteSpace=wrap;rounded=0;" vertex="1" parent="1">
          <mxGeometry x="385" y="790" width="100" height="30" as="geometry" />
        </mxCell>
        <mxCell id="7obgQjxqYn5zs-KwEbyF-95" value="str[i].Lenght &amp;lt;= 3" style="text;html=1;align=center;verticalAlign=middle;whiteSpace=wrap;rounded=0;" vertex="1" parent="1">
          <mxGeometry x="385" y="865" width="110" height="30" as="geometry" />
        </mxCell>
        <mxCell id="7obgQjxqYn5zs-KwEbyF-96" value="Array.Resize(ref new_str, new_str.Lenght + 1)&amp;nbsp;&lt;div&gt;увеличение длины нового массива на 1&lt;/div&gt;" style="text;html=1;align=center;verticalAlign=middle;whiteSpace=wrap;rounded=0;" vertex="1" parent="1">
          <mxGeometry x="365" y="950" width="140" height="30" as="geometry" />
        </mxCell>
        <mxCell id="7obgQjxqYn5zs-KwEbyF-98" value="" style="rounded=0;whiteSpace=wrap;html=1;" vertex="1" parent="1">
          <mxGeometry x="365" y="1020" width="140" height="40" as="geometry" />
        </mxCell>
        <mxCell id="7obgQjxqYn5zs-KwEbyF-97" value="new_str[k] = str[i]" style="text;html=1;align=center;verticalAlign=middle;whiteSpace=wrap;rounded=0;" vertex="1" parent="1">
          <mxGeometry x="385" y="1025" width="100" height="30" as="geometry" />
        </mxCell>
        <mxCell id="7obgQjxqYn5zs-KwEbyF-108" style="edgeStyle=orthogonalEdgeStyle;rounded=0;orthogonalLoop=1;jettySize=auto;html=1;exitX=0;exitY=0.5;exitDx=0;exitDy=0;entryX=0;entryY=0.5;entryDx=0;entryDy=0;" edge="1" parent="1" source="7obgQjxqYn5zs-KwEbyF-103" target="7obgQjxqYn5zs-KwEbyF-92">
          <mxGeometry relative="1" as="geometry" />
        </mxCell>
        <mxCell id="7obgQjxqYn5zs-KwEbyF-103" value="" style="rounded=0;whiteSpace=wrap;html=1;" vertex="1" parent="1">
          <mxGeometry x="365" y="1120" width="140" height="40" as="geometry" />
        </mxCell>
        <mxCell id="7obgQjxqYn5zs-KwEbyF-104" value="" style="rounded=0;whiteSpace=wrap;html=1;" vertex="1" parent="1">
          <mxGeometry x="365" y="1070" width="140" height="40" as="geometry" />
        </mxCell>
        <mxCell id="7obgQjxqYn5zs-KwEbyF-106" value="k ++" style="text;html=1;align=center;verticalAlign=middle;whiteSpace=wrap;rounded=0;" vertex="1" parent="1">
          <mxGeometry x="400" y="1075" width="60" height="30" as="geometry" />
        </mxCell>
        <mxCell id="7obgQjxqYn5zs-KwEbyF-107" value="i ++" style="text;html=1;align=center;verticalAlign=middle;whiteSpace=wrap;rounded=0;" vertex="1" parent="1">
          <mxGeometry x="400" y="1125" width="60" height="30" as="geometry" />
        </mxCell>
        <mxCell id="7obgQjxqYn5zs-KwEbyF-121" value="да" style="text;html=1;align=center;verticalAlign=middle;whiteSpace=wrap;rounded=0;" vertex="1" parent="1">
          <mxGeometry x="445" y="830" width="40" height="20" as="geometry" />
        </mxCell>
        <mxCell id="7obgQjxqYn5zs-KwEbyF-122" value="да" style="text;html=1;align=center;verticalAlign=middle;whiteSpace=wrap;rounded=0;" vertex="1" parent="1">
          <mxGeometry x="445" y="910" width="40" height="20" as="geometry" />
        </mxCell>
        <mxCell id="7obgQjxqYn5zs-KwEbyF-123" value="нет" style="text;html=1;align=center;verticalAlign=middle;whiteSpace=wrap;rounded=0;" vertex="1" parent="1">
          <mxGeometry x="495" y="855" width="40" height="20" as="geometry" />
        </mxCell>
        <mxCell id="7obgQjxqYn5zs-KwEbyF-124" value="Вывод нового массива new_str" style="text;html=1;align=center;verticalAlign=middle;whiteSpace=wrap;rounded=0;" vertex="1" parent="1">
          <mxGeometry x="630" y="790" width="120" height="30" as="geometry" />
        </mxCell>
        <mxCell id="7obgQjxqYn5zs-KwEbyF-126" value="нет" style="text;html=1;align=center;verticalAlign=middle;whiteSpace=wrap;rounded=0;" vertex="1" parent="1">
          <mxGeometry x="495" y="782.5" width="40" height="20" as="geometry" />
        </mxCell>
        <mxCell id="7obgQjxqYn5zs-KwEbyF-127" value="" style="ellipse;whiteSpace=wrap;html=1;" vertex="1" parent="1">
          <mxGeometry x="630" y="860" width="120" height="40" as="geometry" />
        </mxCell>
        <mxCell id="7obgQjxqYn5zs-KwEbyF-128" value="&lt;font style=&quot;font-size: 16px;&quot;&gt;Конец&lt;/font&gt;" style="text;html=1;align=center;verticalAlign=middle;whiteSpace=wrap;rounded=0;" vertex="1" parent="1">
          <mxGeometry x="660" y="865" width="60" height="30" as="geometry" />
        </mxCell>
      </root>
    </mxGraphModel>
  </diagram>
</mxfile>
